<?xml version="1.0" standalone="no"?><svg xmlns="http://www.w3.org/2000/svg" viewBox="0 0 1440 320"><path fill="#0099ff" fill-opacity="1" d="M0,128L21.8,133.3C43.6,139,87,149,131,144C174.5,139,218,117,262,133.3C305.5,149,349,203,393,213.3C436.4,224,480,192,524,192C567.3,192,611,224,655,197.3C698.2,171,742,85,785,80C829.1,75,873,149,916,192C960,235,1004,245,1047,218.7C1090.9,192,1135,128,1178,112C1221.8,96,1265,128,1309,165.3C1352.7,203,1396,245,1418,266.7L1440,288L1440,320L1418.2,320C1396.4,320,1353,320,1309,320C1265.5,320,1222,320,1178,320C1134.5,320,1091,320,1047,320C1003.6,320,960,320,916,320C872.7,320,829,320,785,320C741.8,320,698,320,655,320C610.9,320,567,320,524,320C480,320,436,320,393,320C349.1,320,305,320,262,320C218.2,320,175,320,131,320C87.3,320,44,320,22,320L0,320Z"></path></svg>